<svg version="1.1" viewBox="0.0 0.0 960.0 960.0" fill="none" stroke="none" stroke-linecap="square" stroke-miterlimit="10" xmlns:xlink="http://www.w3.org/1999/xlink" xmlns="http://www.w3.org/2000/svg"><clipPath id="p.0"><path d="m0 0l960.0 0l0 960.0l-960.0 0l0 -960.0z" clip-rule="nonzero"/></clipPath><g clip-path="url(#p.0)"><path fill="#000000" d="m0 0l960.0 0l0 960.0l-960.0 0z" fill-rule="evenodd"/><path fill="#000000" fill-opacity="0.0" d="m62.3937 480.0l0 0c0 -232.24661 186.96872 -420.51968 417.6063 -420.51968l0 0c110.7561 0 216.97589 44.304626 295.29224 123.16736c78.31641 78.86273 122.31409 185.82358 122.31409 297.35233l0 0c0 232.24658 -186.96875 420.5197 -417.60632 420.5197l0 0c-230.63759 0 -417.6063 -188.27313 -417.6063 -420.5197z" fill-rule="evenodd"/><path stroke="#2493ff" stroke-width="24.0" stroke-linejoin="round" stroke-linecap="butt" d="m62.3937 480.0l0 0c0 -232.24661 186.96872 -420.51968 417.6063 -420.51968l0 0c110.7561 0 216.97589 44.304626 295.29224 123.16736c78.31641 78.86273 122.31409 185.82358 122.31409 297.35233l0 0c0 232.24658 -186.96875 420.5197 -417.60632 420.5197l0 0c-230.63759 0 -417.6063 -188.27313 -417.6063 -420.5197z" fill-rule="evenodd"/><path fill="#000000" fill-opacity="0.0" d="m82.07874 484.96286l0 0c0 -221.6445 178.15543 -401.32285 397.92126 -401.32285l0 0c105.53528 0 206.74811 42.282104 281.3728 117.54474c74.624756 75.262634 116.54846 177.34067 116.54846 283.7781l0 0c0 221.6445 -178.1554 401.32285 -397.92126 401.32285l0 0c-219.76584 0 -397.92126 -179.67834 -397.92126 -401.32285z" fill-rule="evenodd"/><path stroke="#2493ff" stroke-width="24.0" stroke-linejoin="round" stroke-linecap="butt" d="m82.07874 484.96286l0 0c0 -221.6445 178.15543 -401.32285 397.92126 -401.32285l0 0c105.53528 0 206.74811 42.282104 281.3728 117.54474c74.624756 75.262634 116.54846 177.34067 116.54846 283.7781l0 0c0 221.6445 -178.1554 401.32285 -397.92126 401.32285l0 0c-219.76584 0 -397.92126 -179.67834 -397.92126 -401.32285z" fill-rule="evenodd"/><path fill="#000000" d="m266.31866 374.80316l0 0c0 -110.04819 90.66409 -199.25986 202.50394 -199.25986l0 0c53.707367 0 105.21506 20.993393 143.19186 58.361862c37.976868 37.368454 59.312073 88.05098 59.312073 140.898l0 0c0 110.04816 -90.66412 199.25983 -202.50394 199.25983l0 0c-111.83984 0 -202.50394 -89.21167 -202.50394 -199.25983z" fill-rule="evenodd"/><path stroke="#2493ff" stroke-width="24.0" stroke-linejoin="round" stroke-linecap="butt" d="m266.31866 374.80316l0 0c0 -110.04819 90.66409 -199.25986 202.50394 -199.25986l0 0c53.707367 0 105.21506 20.993393 143.19186 58.361862c37.976868 37.368454 59.312073 88.05098 59.312073 140.898l0 0c0 110.04816 -90.66412 199.25983 -202.50394 199.25983l0 0c-111.83984 0 -202.50394 -89.21167 -202.50394 -199.25983z" fill-rule="evenodd"/><path fill="#000000" d="m278.8461 373.15616l0 0c0 -102.25531 83.97305 -185.14961 187.55905 -185.14961l0 0c49.743774 0 97.450134 19.506775 132.62427 54.22905c35.174194 34.72229 54.934814 81.81583 54.934814 130.92056l0 0c0 102.25528 -83.97308 185.14957 -187.55908 185.14957l0 0c-103.586 0 -187.55905 -82.89429 -187.55905 -185.14957z" fill-rule="evenodd"/><path stroke="#2493ff" stroke-width="24.0" stroke-linejoin="round" stroke-linecap="butt" d="m278.8461 373.15616l0 0c0 -102.25531 83.97305 -185.14961 187.55905 -185.14961l0 0c49.743774 0 97.450134 19.506775 132.62427 54.22905c35.174194 34.72229 54.934814 81.81583 54.934814 130.92056l0 0c0 102.25528 -83.97308 185.14957 -187.55908 185.14957l0 0c-103.586 0 -187.55905 -82.89429 -187.55905 -185.14957z" fill-rule="evenodd"/><path fill="#000000" d="m219.83202 495.39548l508.9134 0l0 158.01578l-508.9134 0z" fill-rule="evenodd"/><path stroke="#000000" stroke-width="12.0" stroke-linejoin="round" stroke-linecap="butt" d="m219.83202 495.39548l508.9134 0l0 158.01578l-508.9134 0z" fill-rule="evenodd"/><path fill="#000000" d="m562.0573 454.39932l178.11023 0l0 162.4567l-178.11023 0z" fill-rule="evenodd"/><path stroke="#000000" stroke-width="12.0" stroke-linejoin="round" stroke-linecap="butt" d="m562.0573 454.39932l178.11023 0l0 162.4567l-178.11023 0z" fill-rule="evenodd"/><path fill="#000000" fill-opacity="0.0" d="m310.88773 476.93948c2.1588745 5.867096 14.032837 21.769928 12.9534 35.202484c-1.0794678 13.432556 -17.733887 34.430542 -19.430115 45.392822c-1.696228 10.962219 -0.92477417 20.689331 9.252655 20.380737c10.17746 -0.3086548 33.770416 -21.460754 51.81201 -22.232666c18.041565 -0.7718506 39.321228 17.44696 56.43747 17.601257c17.116272 0.15429688 29.606201 -15.594482 46.26007 -16.675293c16.65387 -1.0808105 38.397278 10.190369 53.663147 10.190369c15.26593 0 22.66626 -11.425476 37.93219 -10.190369c15.265869 1.2351685 42.098022 17.601257 53.663147 17.601257c11.565186 0 15.881836 -9.109253 15.727722 -17.601257c-0.15411377 -8.491943 -16.035706 -20.99884 -16.652466 -33.350586c-0.6168213 -12.351715 7.8632812 -26.400726 12.951721 -40.759766c5.08844 -14.359039 14.649109 -37.828735 17.578918 -45.39447" fill-rule="evenodd"/><path stroke="#2493ff" stroke-width="24.0" stroke-linejoin="round" stroke-linecap="butt" d="m310.88773 476.93948c2.1588745 5.867096 14.032837 21.769928 12.9534 35.202484c-1.0794678 13.432556 -17.733887 34.430542 -19.430115 45.392822c-1.696228 10.962219 -0.92477417 20.689331 9.252655 20.380737c10.17746 -0.3086548 33.770416 -21.460754 51.81201 -22.232666c18.041565 -0.7718506 39.321228 17.44696 56.43747 17.601257c17.116272 0.15429688 29.606201 -15.594482 46.26007 -16.675293c16.65387 -1.0808105 38.397278 10.190369 53.663147 10.190369c15.26593 0 22.66626 -11.425476 37.93219 -10.190369c15.265869 1.2351685 42.098022 17.601257 53.663147 17.601257c11.565186 0 15.881836 -9.109253 15.727722 -17.601257c-0.15411377 -8.491943 -16.035706 -20.99884 -16.652466 -33.350586c-0.6168213 -12.351715 7.8632812 -26.400726 12.951721 -40.759766c5.08844 -14.359039 14.649109 -37.828735 17.578918 -45.39447" fill-rule="evenodd"/><path fill="#000000" fill-opacity="0.0" d="m300.91708 486.44c2.3280945 6.312378 15.13269 23.422241 13.968628 37.874268c-1.164032 14.452087 -19.12378 37.043823 -20.952942 48.838135c-1.8291931 11.7942505 -0.9972534 22.259644 9.977844 21.927612c10.975098 -0.3320923 36.417175 -23.0896 55.872772 -23.920044c19.455597 -0.8305054 42.403046 18.771118 60.86081 18.937134c18.457733 0.16601562 31.926575 -16.778076 49.88568 -17.940918c17.959137 -1.1628418 41.406708 10.963806 57.86905 10.963806c16.462341 0 24.442749 -12.292725 40.90509 -10.963806c16.462341 1.3288574 45.39746 18.937134 57.86908 18.937134c12.471558 0 17.126587 -9.800659 16.960388 -18.937134c-0.16619873 -9.136536 -17.292542 -22.592651 -17.957642 -35.881897c-0.66516113 -13.289185 8.479614 -28.40451 13.966858 -43.853394c5.4872437 -15.448883 15.797241 -40.69989 18.956665 -48.839874" fill-rule="evenodd"/><path stroke="#2493ff" stroke-width="24.0" stroke-linejoin="round" stroke-linecap="butt" d="m300.91708 486.44c2.3280945 6.312378 15.13269 23.422241 13.968628 37.874268c-1.164032 14.452087 -19.12378 37.043823 -20.952942 48.838135c-1.8291931 11.7942505 -0.9972534 22.259644 9.977844 21.927612c10.975098 -0.3320923 36.417175 -23.0896 55.872772 -23.920044c19.455597 -0.8305054 42.403046 18.771118 60.86081 18.937134c18.457733 0.16601562 31.926575 -16.778076 49.88568 -17.940918c17.959137 -1.1628418 41.406708 10.963806 57.86905 10.963806c16.462341 0 24.442749 -12.292725 40.90509 -10.963806c16.462341 1.3288574 45.39746 18.937134 57.86908 18.937134c12.471558 0 17.126587 -9.800659 16.960388 -18.937134c-0.16619873 -9.136536 -17.292542 -22.592651 -17.957642 -35.881897c-0.66516113 -13.289185 8.479614 -28.40451 13.966858 -43.853394c5.4872437 -15.448883 15.797241 -40.69989 18.956665 -48.839874" fill-rule="evenodd"/><path fill="#000000" d="m318.53284 454.39886c5.137268 9.893677 25.68634 49.468414 30.823608 59.36206" fill-rule="evenodd"/><path stroke="#000000" stroke-width="12.0" stroke-linejoin="round" stroke-linecap="butt" d="m318.53284 454.39886c5.137268 9.893677 25.68634 49.468414 30.823608 59.36206" fill-rule="evenodd"/><path fill="#000000" fill-opacity="0.0" d="m336.11502 579.0965c1.842102 15.116516 2.8470154 57.808228 11.052612 90.699036c8.205627 32.89081 29.975464 120.76581 38.18109 106.64581c8.205627 -14.119995 9.21051 -159.47144 11.052612 -191.36572" fill-rule="evenodd"/><path stroke="#2493ff" stroke-width="24.0" stroke-linejoin="round" stroke-linecap="butt" d="m336.11502 579.0965c1.842102 15.116516 2.8470154 57.808228 11.052612 90.699036c8.205627 32.89081 29.975464 120.76581 38.18109 106.64581c8.205627 -14.119995 9.21051 -159.47144 11.052612 -191.36572" fill-rule="evenodd"/><path fill="#000000" fill-opacity="0.0" d="m444.5659 583.0831c3.3494263 33.555298 9.713837 201.99597 20.096619 201.33154c10.382782 -0.6644287 35.166718 -171.09851 42.200043 -205.31818" fill-rule="evenodd"/><path stroke="#2493ff" stroke-width="24.0" stroke-linejoin="round" stroke-linecap="butt" d="m444.5659 583.0831c3.3494263 33.555298 9.713837 201.99597 20.096619 201.33154c10.382782 -0.6644287 35.166718 -171.09851 42.200043 -205.31818" fill-rule="evenodd"/><path fill="#000000" fill-opacity="0.0" d="m598.86053 579.0965c-1.842102 15.116516 -2.8469849 57.808228 -11.052612 90.699036c-8.205566 32.89081 -29.975464 120.76581 -38.18109 106.64581c-8.205566 -14.119995 -9.21051 -159.47144 -11.052612 -191.36572" fill-rule="evenodd"/><path stroke="#2493ff" stroke-width="24.0" stroke-linejoin="round" stroke-linecap="butt" d="m598.86053 579.0965c-1.842102 15.116516 -2.8469849 57.808228 -11.052612 90.699036c-8.205566 32.89081 -29.975464 120.76581 -38.18109 106.64581c-8.205566 -14.119995 -9.21051 -159.47144 -11.052612 -191.36572" fill-rule="evenodd"/><path fill="#339aff" d="m620.75494 576.0445l0 0c0 -6.957947 3.8707886 -12.59845 8.64563 -12.59845l0 0c2.2930298 0 4.4920654 1.3273315 6.1134644 3.6900024c1.6213379 2.362671 2.5322266 5.5671387 2.5322266 8.908447l0 0c0 6.9578857 -3.8707886 12.59845 -8.645691 12.59845l0 0c-4.7748413 0 -8.64563 -5.640564 -8.64563 -12.59845z" fill-rule="evenodd"/><path stroke="#339aff" stroke-width="1.0" stroke-linejoin="round" stroke-linecap="butt" d="m620.75494 576.0445l0 0c0 -6.957947 3.8707886 -12.59845 8.64563 -12.59845l0 0c2.2930298 0 4.4920654 1.3273315 6.1134644 3.6900024c1.6213379 2.362671 2.5322266 5.5671387 2.5322266 8.908447l0 0c0 6.9578857 -3.8707886 12.59845 -8.645691 12.59845l0 0c-4.7748413 0 -8.64563 -5.640564 -8.64563 -12.59845z" fill-rule="evenodd"/><path fill="#339aff" d="m295.04095 582.2761l0 0c0 -6.957947 3.870819 -12.59845 8.645691 -12.59845l0 0c2.2929688 0 4.492035 1.3273315 6.1134033 3.6900024c1.6213684 2.362671 2.532257 5.5671387 2.532257 8.908447l0 0c0 6.9578857 -3.8707886 12.598389 -8.64566 12.598389l0 0c-4.774872 0 -8.645691 -5.640503 -8.645691 -12.598389z" fill-rule="evenodd"/><path stroke="#339aff" stroke-width="1.0" stroke-linejoin="round" stroke-linecap="butt" d="m295.04095 582.2761l0 0c0 -6.957947 3.870819 -12.59845 8.645691 -12.59845l0 0c2.2929688 0 4.492035 1.3273315 6.1134033 3.6900024c1.6213684 2.362671 2.532257 5.5671387 2.532257 8.908447l0 0c0 6.9578857 -3.8707886 12.598389 -8.64566 12.598389l0 0c-4.774872 0 -8.645691 -5.640503 -8.645691 -12.598389z" fill-rule="evenodd"/><path fill="#000000" fill-opacity="0.0" d="m342.37857 578.9393c1.3765259 12.34259 2.1274414 47.200195 8.259186 74.05536c6.1317444 26.855164 22.399506 98.604614 28.53122 87.07568c6.1317444 -11.52887 6.88266 -130.20758 8.259186 -156.24908" fill-rule="evenodd"/><path stroke="#2493ff" stroke-width="24.0" stroke-linejoin="round" stroke-linecap="butt" d="m342.37857 578.9393c1.3765259 12.34259 2.1274414 47.200195 8.259186 74.05536c6.1317444 26.855164 22.399506 98.604614 28.53122 87.07568c6.1317444 -11.52887 6.88266 -130.20758 8.259186 -156.24908" fill-rule="evenodd"/><path fill="#000000" fill-opacity="0.0" d="m450.82864 581.2462c2.546936 27.798035 7.386505 167.33838 15.281677 166.7879c7.8951416 -0.55041504 26.741058 -141.74213 32.089294 -170.09052" fill-rule="evenodd"/><path stroke="#2493ff" stroke-width="24.0" stroke-linejoin="round" stroke-linecap="butt" d="m450.82864 581.2462c2.546936 27.798035 7.386505 167.33838 15.281677 166.7879c7.8951416 -0.55041504 26.741058 -141.74213 32.089294 -170.09052" fill-rule="evenodd"/><path fill="#000000" fill-opacity="0.0" d="m592.5969 570.8227c-1.3765259 12.914673 -2.1274414 49.388184 -8.259216 77.48828c-6.131714 28.100037 -22.399475 103.17554 -28.531189 91.11224c-6.131775 -12.0633545 -6.8826904 -136.24359 -8.259216 -163.49231" fill-rule="evenodd"/><path stroke="#2493ff" stroke-width="24.0" stroke-linejoin="round" stroke-linecap="butt" d="m592.5969 570.8227c-1.3765259 12.914673 -2.1274414 49.388184 -8.259216 77.48828c-6.131714 28.100037 -22.399475 103.17554 -28.531189 91.11224c-6.131775 -12.0633545 -6.8826904 -136.24359 -8.259216 -163.49231" fill-rule="evenodd"/><path fill="#000000" d="m286.23883 472.66144c3.9050903 6.8500366 19.52533 34.250244 23.43039 41.10028" fill-rule="evenodd"/><path stroke="#2493ff" stroke-width="12.0" stroke-linejoin="round" stroke-linecap="butt" d="m286.23883 472.66144c3.9050903 6.8500366 19.52533 34.250244 23.43039 41.10028" fill-rule="evenodd"/></g></svg>