<svg version="1.1" viewBox="0.0 0.0 500.0 500.0" fill="none" stroke="none" stroke-linecap="square" stroke-miterlimit="10" xmlns:xlink="http://www.w3.org/1999/xlink" xmlns="http://www.w3.org/2000/svg"><clipPath id="p.0"><path d="m0 0l500.0 0l0 500.0l-500.0 0l0 -500.0z" clip-rule="nonzero"/></clipPath><g clip-path="url(#p.0)"><path fill="#000000" fill-opacity="0.0" d="m0 0l500.0 0l0 500.0l-500.0 0z" fill-rule="evenodd"/><path fill="#000000" d="m250.0 10.960629l213.5747 106.7874l0 264.50397l-213.5747 106.787384l-213.5747 -106.787384l0 -264.50397z" fill-rule="evenodd"/><path stroke="#000000" stroke-width="1.0" stroke-linejoin="round" stroke-linecap="butt" d="m250.0 10.960629l213.5747 106.7874l0 264.50397l-213.5747 106.787384l-213.5747 -106.787384l0 -264.50397z" fill-rule="evenodd"/><path fill="#000000" d="m118.144356 357.0853l0 0c0 -28.101288 22.780602 -50.881897 50.88189 -50.881897l0 0c13.49472 0 26.436722 5.360779 35.978928 14.902985c9.542206 9.542206 14.902969 22.484192 14.902969 35.978912l0 0c0 28.101288 -22.78061 50.881897 -50.881897 50.881897l0 0c-28.101288 0 -50.88189 -22.78061 -50.88189 -50.881897z" fill-rule="evenodd"/><path stroke="#2493ff" stroke-width="12.0" stroke-linejoin="round" stroke-linecap="butt" d="m118.144356 357.0853l0 0c0 -28.101288 22.780602 -50.881897 50.88189 -50.881897l0 0c13.49472 0 26.436722 5.360779 35.978928 14.902985c9.542206 9.542206 14.902969 22.484192 14.902969 35.978912l0 0c0 28.101288 -22.78061 50.881897 -50.881897 50.881897l0 0c-28.101288 0 -50.88189 -22.78061 -50.88189 -50.881897z" fill-rule="evenodd"/><path fill="#000000" d="m174.14436 283.479l0 0c0 -36.05072 29.224869 -65.27559 65.27559 -65.27559l0 0c17.312164 0 33.915253 6.877228 46.1568 19.118774c12.241547 12.241547 19.118774 28.84465 19.118774 46.156815l0 0c0 36.05072 -29.224854 65.275604 -65.27557 65.275604l0 0c-36.05072 0 -65.27559 -29.224884 -65.27559 -65.275604z" fill-rule="evenodd"/><path stroke="#2493ff" stroke-width="12.0" stroke-linejoin="round" stroke-linecap="butt" d="m174.14436 283.479l0 0c0 -36.05072 29.224869 -65.27559 65.27559 -65.27559l0 0c17.312164 0 33.915253 6.877228 46.1568 19.118774c12.241547 12.241547 19.118774 28.84465 19.118774 46.156815l0 0c0 36.05072 -29.224854 65.275604 -65.27557 65.275604l0 0c-36.05072 0 -65.27559 -29.224884 -65.27559 -65.275604z" fill-rule="evenodd"/><path fill="#000000" d="m219.30446 165.3084l0 0c0 -49.305542 39.970047 -89.27559 89.27559 -89.27559l0 0c23.677368 0 46.38495 9.4058 63.12738 26.148216c16.742432 16.742424 26.148224 39.45002 26.148224 63.127373l0 0c0 49.305557 -39.970062 89.27559 -89.275604 89.27559l0 0c-49.305542 0 -89.27559 -39.97003 -89.27559 -89.27559z" fill-rule="evenodd"/><path stroke="#2493ff" stroke-width="12.0" stroke-linejoin="round" stroke-linecap="butt" d="m219.30446 165.3084l0 0c0 -49.305542 39.970047 -89.27559 89.27559 -89.27559l0 0c23.677368 0 46.38495 9.4058 63.12738 26.148216c16.742432 16.742424 26.148224 39.45002 26.148224 63.127373l0 0c0 49.305557 -39.970062 89.27559 -89.275604 89.27559l0 0c-49.305542 0 -89.27559 -39.97003 -89.27559 -89.27559z" fill-rule="evenodd"/></g></svg>